<?xml version="1.0" encoding="UTF-8" standalone="no"?>
<svg width="81px" height="62px" viewBox="0 0 81 62" version="1.1" xmlns="http://www.w3.org/2000/svg" xmlns:xlink="http://www.w3.org/1999/xlink">
    <!-- Generator: Sketch 39.1 (31720) - http://www.bohemiancoding.com/sketch -->
    <title>logo-blk</title>
    <desc>Created with Sketch.</desc>
    <defs></defs>
    <g id="Microsite" stroke="none" stroke-width="1" fill="none" fill-rule="evenodd">
        <g id="Release3_04" transform="translate(-46.000000, -38.000000)">
            <g id="logo-blk" transform="translate(46.000000, 38.000000)">
                <g>
                    <path d="M54.7431655,40.5294338 C52.1411831,40.9498352 50.8109577,42.8718739 50.8109577,46.2539092 C50.8109577,49.6573352 52.5829754,51.9330359 55.2996127,51.9330359 C56.563669,51.9330359 57.7122148,51.5132049 60.1265282,50.3287225 L60.1265282,53.0818669 C57.2287817,54.4109514 55.5229331,54.8219408 53.1884789,54.8219408 C50.6606514,54.8219408 48.8823592,54.1508387 47.4300634,52.6705923 C45.941831,51.1820746 45.1974296,49.2152577 45.1974296,47.0259761 C45.1974296,42.155138 48.8033556,38.859807 54.0703521,38.859807 C57.5684683,38.859807 59.9745106,40.4578458 59.9745106,42.8051345 C59.9745106,44.316469 58.8547711,45.3566345 57.1931303,45.3566345 C56.3403486,45.3566345 55.6395845,45.1333141 54.7431655,44.6125183 L54.7431655,40.5294338 L54.7431655,40.5294338 Z" id="Fill-1" fill="#3A3137"></path>
                    <path d="M41.9030683,47.0260616 C44.2360965,44.084963 45.0597866,42.8990546 45.0597866,41.4550299 C45.0597866,40.0172799 43.9183711,38.8596074 42.3939169,38.8596074 C41.4547162,38.8596074 40.6090648,39.3031109 40.1963641,39.7640123 L40.1963641,45.754875 L36.3739627,50.8478926 L36.3739627,39.2363715 L32.7398007,39.2363715 L26.6984556,49.2521356 L26.6984556,39.2363715 L24.6101387,39.2363715 L19.1258113,40.5734419 L19.1258113,41.9752553 L22.1173923,42.2787201 L22.1173923,54.5619137 L25.9837162,54.5619137 L31.7783535,45.0392799 L31.7783535,54.5619137 L36.0123148,54.5619137 L41.9030683,47.0260616 Z" id="Fill-3" fill="#3A3137"></path>
                    <path d="M7.57871937,59.3826116 L10.0860116,59.9401996 L10.0862968,61.3628335 L0.250215845,61.3628335 L0.250215845,59.9401996 L2.4916912,59.3826116 L2.4916912,42.1992032 L8.55633803e-05,42.1992032 L8.55633803e-05,40.7255165 L6.01718768,38.8978827 L7.57871937,38.8978827 L7.57871937,40.9496926 C10.3968919,39.2729356 11.3648989,38.9760306 12.8106349,38.9760306 C16.1490327,38.9760306 18.6129729,42.0548863 18.6129729,46.3179391 C18.6129729,51.2463898 15.3250574,54.5619708 10.1444799,54.5619708 C9.55837077,54.5619708 8.58351866,54.5263194 7.57871937,54.4108088 L7.57871937,59.3826116 Z M7.57871937,52.6707349 C7.99027923,52.6901292 8.17081796,52.6901292 8.43093063,52.6901292 C11.5454377,52.6901292 13.2150644,50.7484109 13.2150644,47.0261187 C13.2150644,43.8748194 11.8491877,42.1992032 9.32792007,42.1992032 C8.9083743,42.1992032 8.46772289,42.250256 7.57871937,42.3583511 L7.57871937,52.6707349 Z" id="Fill-5" fill="#3A3137"></path>
                    <polygon id="Clip-8" points="0 61.362919 80.8471268 61.362919 80.8471268 0 0 0"></polygon>
                    <polygon id="Fill-7" fill="#3A3137" points="36.3826901 30.1134613 51.4401338 30.1134613 51.4401338 26.3489577 36.3826901 26.3489577"></polygon>
                    <path d="M77.027007,25.5971408 L80.0953099,25.5971408 L80.0953099,19.5731937 L77.027007,19.5731937 L77.027007,25.5971408 Z M69.4104401,25.5971408 L76.2749049,25.5971408 L76.2749049,19.5731937 L69.4104401,19.5731937 L69.4104401,25.5971408 Z M52.1922359,2.94052817 L65.7044049,2.94052817 L65.7044049,0.751816901 L52.1922359,0.751816901 L52.1922359,2.94052817 Z M66.4562218,7.52358803 L68.658338,7.52358803 L68.658338,3.69234507 L66.4562218,3.69234507 L66.4562218,7.52358803 Z M66.4562218,18.8213768 L68.658338,18.8213768 L68.658338,8.27569014 L66.4562218,8.27569014 L66.4562218,18.8213768 Z M66.4562218,25.5971408 L68.658338,25.5971408 L68.658338,19.5731937 L66.4562218,19.5731937 L66.4562218,25.5971408 Z M60.8238697,25.5971408 L65.7041197,25.5971408 L65.7041197,19.5731937 L60.8238697,19.5731937 L60.8238697,25.5971408 Z M52.1922359,25.5971408 L60.0726232,25.5971408 L60.0726232,19.5731937 L52.1922359,19.5731937 L52.1922359,25.5971408 Z M65.7044049,8.27569014 L65.7044049,18.8213768 L60.8238697,18.8213768 L60.8238697,15.0488873 L52.193662,15.0491725 L52.1922359,8.27569014 L65.7044049,8.27569014 Z M52.1922359,7.52358803 L65.7044049,7.52358803 L65.7044049,3.69234507 L52.1922359,3.69234507 L52.1922359,7.52358803 Z M52.1922359,18.8213768 L60.0726232,18.8213768 L60.0726232,15.8009894 L52.1922359,15.8009894 L52.1922359,18.8213768 Z M69.4104401,18.8213768 L76.2749049,18.8213768 L76.2749049,8.27569014 L69.4104401,8.27569014 L69.4104401,18.8213768 Z M77.027007,18.8213768 L77.027007,7.52358803 L69.4104401,7.52358803 L69.4104401,2.94052817 L66.4562218,2.94052817 L66.4562218,0 L51.440419,0 L51.440419,26.3489577 L80.8471268,26.3489577 L80.8471268,18.8213768 L77.027007,18.8213768 Z" id="Fill-9" fill="#3A3137"></path>
                </g>
            </g>
        </g>
    </g>
</svg>